<svg width="392" height="296" viewBox="0 0 392 296" fill="none" xmlns="http://www.w3.org/2000/svg">
<path d="M265.026 60H363C377.359 60 389 71.6406 389 86V210C389 224.359 377.359 236 363 236H273.109C247.462 236 244.192 198.795 269.447 194.322C270.656 194.108 271.881 194 273.109 194H316C333.673 194 348 179.673 348 162V146.75V131.5C348 113.827 333.673 99.5 316 99.5H265.026C263.282 99.5 261.546 99.2691 259.863 98.8132C237.603 92.7843 241.964 60 265.026 60Z" fill="#EEEEEE" stroke="#7E7E7E" stroke-width="6"/>
<rect x="8.5" y="2.5" width="265" height="291" rx="7.5" fill="#EEEEEE" stroke="#7E7E7E" stroke-width="5" stroke-linecap="round" stroke-linejoin="round"/>
<rect x="24.5" y="19.5" width="235" height="30" rx="9.5" fill="#161616" stroke="#919191"/>
</svg>

